%TF.GenerationSoftware,KiCad,Pcbnew,7.0.9-7.0.9~ubuntu22.04.1*%
%TF.CreationDate,2026-01-29T14:23:22+02:00*%
%TF.ProjectId,ESP32-P4-PC_Rev_B,45535033-322d-4503-942d-50435f526576,B*%
%TF.SameCoordinates,PX80befc0PY7459280*%
%TF.FileFunction,Soldermask,Top*%
%TF.FilePolarity,Negative*%
%FSLAX46Y46*%
G04 Gerber Fmt 4.6, Leading zero omitted, Abs format (unit mm)*
G04 Created by KiCad (PCBNEW 7.0.9-7.0.9~ubuntu22.04.1) date 2026-01-29 14:23:22*
%MOMM*%
%LPD*%
G01*
G04 APERTURE LIST*
G04 Aperture macros list*
%AMRoundRect*
0 Rectangle with rounded corners*
0 $1 Rounding radius*
0 $2 $3 $4 $5 $6 $7 $8 $9 X,Y pos of 4 corners*
0 Add a 4 corners polygon primitive as box body*
4,1,4,$2,$3,$4,$5,$6,$7,$8,$9,$2,$3,0*
0 Add four circle primitives for the rounded corners*
1,1,$1+$1,$2,$3*
1,1,$1+$1,$4,$5*
1,1,$1+$1,$6,$7*
1,1,$1+$1,$8,$9*
0 Add four rect primitives between the rounded corners*
20,1,$1+$1,$2,$3,$4,$5,0*
20,1,$1+$1,$4,$5,$6,$7,0*
20,1,$1+$1,$6,$7,$8,$9,0*
20,1,$1+$1,$8,$9,$2,$3,0*%
G04 Aperture macros list end*
%ADD10C,0.100000*%
%ADD11RoundRect,0.050800X-0.150000X-0.575000X0.150000X-0.575000X0.150000X0.575000X-0.150000X0.575000X0*%
%ADD12RoundRect,0.050800X-0.125000X-0.575000X0.125000X-0.575000X0.125000X0.575000X-0.125000X0.575000X0*%
%ADD13RoundRect,0.050800X-0.550000X-1.000000X0.550000X-1.000000X0.550000X1.000000X-0.550000X1.000000X0*%
%ADD14O,1.401600X2.101600*%
%ADD15RoundRect,0.050800X-0.550000X-1.100000X0.550000X-1.100000X0.550000X1.100000X-0.550000X1.100000X0*%
%ADD16O,1.301600X2.301600*%
%ADD17C,0.701600*%
%ADD18RoundRect,0.050800X-0.275000X0.250000X-0.275000X-0.250000X0.275000X-0.250000X0.275000X0.250000X0*%
%ADD19RoundRect,0.050800X0.275000X-0.250000X0.275000X0.250000X-0.275000X0.250000X-0.275000X-0.250000X0*%
%ADD20RoundRect,0.050800X0.500000X-0.700000X0.500000X0.700000X-0.500000X0.700000X-0.500000X-0.700000X0*%
%ADD21C,1.101600*%
%ADD22RoundRect,0.050800X0.250000X0.275000X-0.250000X0.275000X-0.250000X-0.275000X0.250000X-0.275000X0*%
%ADD23RoundRect,0.050800X-0.250000X-0.275000X0.250000X-0.275000X0.250000X0.275000X-0.250000X0.275000X0*%
%ADD24RoundRect,0.050800X0.825000X-0.300000X0.825000X0.300000X-0.825000X0.300000X-0.825000X-0.300000X0*%
%ADD25O,1.401600X2.401600*%
%ADD26O,1.401600X2.801600*%
%ADD27RoundRect,0.050800X0.125000X-0.800000X0.125000X0.800000X-0.125000X0.800000X-0.125000X-0.800000X0*%
%ADD28RoundRect,0.050800X0.400000X0.400000X-0.400000X0.400000X-0.400000X-0.400000X0.400000X-0.400000X0*%
%ADD29RoundRect,0.050800X-0.525000X-0.325000X0.525000X-0.325000X0.525000X0.325000X-0.525000X0.325000X0*%
%ADD30RoundRect,0.050800X-0.400000X0.400000X-0.400000X-0.400000X0.400000X-0.400000X0.400000X0.400000X0*%
%ADD31RoundRect,0.050800X-0.450000X-0.900000X0.450000X-0.900000X0.450000X0.900000X-0.450000X0.900000X0*%
%ADD32RoundRect,0.050800X0.762000X0.635000X-0.762000X0.635000X-0.762000X-0.635000X0.762000X-0.635000X0*%
%ADD33RoundRect,0.050800X-0.508000X0.508000X-0.508000X-0.508000X0.508000X-0.508000X0.508000X0.508000X0*%
%ADD34RoundRect,0.050800X0.700000X0.600000X-0.700000X0.600000X-0.700000X-0.600000X0.700000X-0.600000X0*%
%ADD35RoundRect,0.050800X-0.500000X0.700000X-0.500000X-0.700000X0.500000X-0.700000X0.500000X0.700000X0*%
%ADD36C,1.301600*%
%ADD37RoundRect,0.050800X-2.125000X-0.500000X2.125000X-0.500000X2.125000X0.500000X-2.125000X0.500000X0*%
%ADD38RoundRect,0.050800X0.900000X-0.500000X0.900000X0.500000X-0.900000X0.500000X-0.900000X-0.500000X0*%
%ADD39RoundRect,0.050800X-0.371231X-0.017678X-0.017678X-0.371231X0.371231X0.017678X0.017678X0.371231X0*%
%ADD40RoundRect,0.050800X0.371231X0.017678X0.017678X0.371231X-0.371231X-0.017678X-0.017678X-0.371231X0*%
%ADD41RoundRect,0.050800X0.425000X0.087500X-0.425000X0.087500X-0.425000X-0.087500X0.425000X-0.087500X0*%
%ADD42RoundRect,0.050800X0.450000X0.087500X-0.450000X0.087500X-0.450000X-0.087500X0.450000X-0.087500X0*%
%ADD43RoundRect,0.050800X-0.087500X0.425000X-0.087500X-0.425000X0.087500X-0.425000X0.087500X0.425000X0*%
%ADD44RoundRect,0.050800X-0.087500X0.450000X-0.087500X-0.450000X0.087500X-0.450000X0.087500X0.450000X0*%
%ADD45C,1.701600*%
%ADD46C,2.501600*%
%ADD47RoundRect,0.050800X3.800000X3.800000X-3.800000X3.800000X-3.800000X-3.800000X3.800000X-3.800000X0*%
%ADD48RoundRect,0.050800X-0.100000X-0.337500X0.100000X-0.337500X0.100000X0.337500X-0.100000X0.337500X0*%
%ADD49RoundRect,0.050800X-0.150000X-0.387500X0.150000X-0.387500X0.150000X0.387500X-0.150000X0.387500X0*%
%ADD50RoundRect,0.050800X0.508000X-0.508000X0.508000X0.508000X-0.508000X0.508000X-0.508000X-0.508000X0*%
%ADD51RoundRect,0.050800X-0.160000X0.750000X-0.160000X-0.750000X0.160000X-0.750000X0.160000X0.750000X0*%
%ADD52C,3.501600*%
%ADD53C,1.601600*%
%ADD54RoundRect,0.050800X1.750000X-1.000000X1.750000X1.000000X-1.750000X1.000000X-1.750000X-1.000000X0*%
%ADD55RoundRect,0.050800X1.500000X-0.500000X1.500000X0.500000X-1.500000X0.500000X-1.500000X-0.500000X0*%
%ADD56C,3.000000*%
%ADD57RoundRect,0.050800X-0.300000X-1.100000X0.300000X-1.100000X0.300000X1.100000X-0.300000X1.100000X0*%
%ADD58RoundRect,0.050800X-0.400000X-0.400000X0.400000X-0.400000X0.400000X0.400000X-0.400000X0.400000X0*%
%ADD59RoundRect,0.050800X-0.125000X0.350000X-0.125000X-0.350000X0.125000X-0.350000X0.125000X0.350000X0*%
%ADD60RoundRect,0.050800X-0.762000X-0.635000X0.762000X-0.635000X0.762000X0.635000X-0.762000X0.635000X0*%
%ADD61RoundRect,0.050800X0.500000X0.100000X-0.500000X0.100000X-0.500000X-0.100000X0.500000X-0.100000X0*%
%ADD62RoundRect,0.050800X0.500000X-0.100000X0.500000X0.100000X-0.500000X0.100000X-0.500000X-0.100000X0*%
%ADD63RoundRect,0.050800X0.100000X0.500000X-0.100000X0.500000X-0.100000X-0.500000X0.100000X-0.500000X0*%
%ADD64RoundRect,0.050800X0.100000X-0.500000X0.100000X0.500000X-0.100000X0.500000X-0.100000X-0.500000X0*%
%ADD65C,1.901600*%
%ADD66RoundRect,0.050800X3.000000X3.000000X-3.000000X3.000000X-3.000000X-3.000000X3.000000X-3.000000X0*%
%ADD67C,3.401601*%
%ADD68O,1.701600X3.101599*%
%ADD69C,1.625600*%
%ADD70RoundRect,0.050800X-0.700000X-0.500000X0.700000X-0.500000X0.700000X0.500000X-0.700000X0.500000X0*%
%ADD71RoundRect,0.050800X0.600000X-0.700000X0.600000X0.700000X-0.600000X0.700000X-0.600000X-0.700000X0*%
%ADD72RoundRect,0.050800X0.550000X-0.350000X0.550000X0.350000X-0.550000X0.350000X-0.550000X-0.350000X0*%
%ADD73RoundRect,0.050800X0.700000X-0.600000X0.700000X0.600000X-0.700000X0.600000X-0.700000X-0.600000X0*%
%ADD74RoundRect,0.050800X0.700000X-0.800000X0.700000X0.800000X-0.700000X0.800000X-0.700000X-0.800000X0*%
%ADD75RoundRect,0.050800X1.100000X-0.600000X1.100000X0.600000X-1.100000X0.600000X-1.100000X-0.600000X0*%
%ADD76RoundRect,0.050800X0.635000X-0.762000X0.635000X0.762000X-0.635000X0.762000X-0.635000X-0.762000X0*%
%ADD77RoundRect,0.050800X-1.500000X0.750000X-1.500000X-0.750000X1.500000X-0.750000X1.500000X0.750000X0*%
%ADD78RoundRect,0.050800X-0.762000X0.762000X-0.762000X-0.762000X0.762000X-0.762000X0.762000X0.762000X0*%
%ADD79RoundRect,0.050800X-1.500000X0.500000X-1.500000X-0.500000X1.500000X-0.500000X1.500000X0.500000X0*%
%ADD80RoundRect,0.050800X-1.750000X1.000000X-1.750000X-1.000000X1.750000X-1.000000X1.750000X1.000000X0*%
%ADD81RoundRect,0.050800X0.508000X0.508000X-0.508000X0.508000X-0.508000X-0.508000X0.508000X-0.508000X0*%
%ADD82RoundRect,0.050800X-0.889000X0.889000X-0.889000X-0.889000X0.889000X-0.889000X0.889000X0.889000X0*%
%ADD83C,1.879600*%
%ADD84RoundRect,0.050800X0.400000X-0.400000X0.400000X0.400000X-0.400000X0.400000X-0.400000X-0.400000X0*%
%ADD85C,3.401600*%
%ADD86RoundRect,0.050800X-0.381000X-0.508000X0.381000X-0.508000X0.381000X0.508000X-0.381000X0.508000X0*%
%ADD87RoundRect,0.050800X-0.254000X-0.254000X0.254000X-0.254000X0.254000X0.254000X-0.254000X0.254000X0*%
%ADD88RoundRect,0.050800X0.381000X-0.254000X0.381000X0.254000X-0.381000X0.254000X-0.381000X-0.254000X0*%
%ADD89RoundRect,0.050800X-0.700000X0.700000X-0.700000X-0.700000X0.700000X-0.700000X0.700000X0.700000X0*%
G04 APERTURE END LIST*
D10*
X44578000Y4906000D02*
X50039000Y4906000D01*
X50039000Y3001000D01*
X44578000Y3001000D01*
X44578000Y4906000D01*
G36*
X44578000Y4906000D02*
G01*
X50039000Y4906000D01*
X50039000Y3001000D01*
X44578000Y3001000D01*
X44578000Y4906000D01*
G37*
D11*
%TO.C,USB-Serial/JTAG1*%
X3425000Y7432000D03*
X4225000Y7432000D03*
D12*
X4750000Y7432000D03*
X5750000Y7432000D03*
X7250000Y7432000D03*
X8250000Y7432000D03*
D11*
X8775000Y7432000D03*
X9575000Y7432000D03*
X9825000Y7432000D03*
X9025000Y7432000D03*
D12*
X7750000Y7432000D03*
X6750000Y7432000D03*
X6250000Y7432000D03*
X5250000Y7432000D03*
D11*
X3975000Y7432000D03*
X3175000Y7432000D03*
D13*
X1572400Y2350000D03*
D14*
X2180000Y2350000D03*
X10820000Y2350000D03*
D13*
X11427600Y2350000D03*
D15*
X1572400Y6530000D03*
D16*
X2180000Y6530000D03*
X10820000Y6530000D03*
D15*
X11427600Y6530000D03*
D17*
X3610000Y6030000D03*
X9390000Y6030000D03*
%TD*%
D18*
%TO.C,C73*%
X39625000Y25353000D03*
D19*
X39625000Y26369000D03*
%TD*%
D20*
%TO.C,FET7*%
X41590960Y74847440D03*
X39688500Y74847440D03*
X40643540Y72637640D03*
%TD*%
D21*
%TO.C,+5V1*%
X34926000Y6176000D03*
%TD*%
D22*
%TO.C,R86*%
X40641000Y66755000D03*
D23*
X41657000Y66755000D03*
%TD*%
D24*
%TO.C,MIPI-CSI1*%
X45675000Y48000000D03*
X45675000Y47000000D03*
X45675000Y46000000D03*
X45675000Y45000000D03*
X45675000Y44000000D03*
X45675000Y43000000D03*
X45675000Y42000000D03*
X45675000Y41000000D03*
X45675000Y40000000D03*
X45675000Y39000000D03*
X45675000Y38000000D03*
X45675000Y37000000D03*
X45675000Y36000000D03*
X45675000Y35000000D03*
X45675000Y34000000D03*
X49325000Y34000000D03*
X49325000Y35000000D03*
X49325000Y36000000D03*
X49325000Y37000000D03*
X49325000Y38000000D03*
X49325000Y39000000D03*
X49325000Y40000000D03*
X49325000Y41000000D03*
X49325000Y42000000D03*
X49325000Y43000000D03*
X49325000Y44000000D03*
X49325000Y45000000D03*
X49325000Y46000000D03*
X49325000Y47000000D03*
X49325000Y48000000D03*
%TD*%
D25*
%TO.C,HDMI1*%
X25200000Y85350000D03*
D26*
X25200000Y79300000D03*
D25*
X39800000Y85350000D03*
D26*
X39800000Y79300000D03*
D27*
X28000000Y78350000D03*
X28500000Y78350000D03*
X29000000Y78350000D03*
X29500000Y78350000D03*
X30000000Y78350000D03*
X30500000Y78350000D03*
X31000000Y78350000D03*
X31500000Y78350000D03*
X32000000Y78350000D03*
X32500000Y78350000D03*
X33000000Y78350000D03*
X33500000Y78350000D03*
X34000000Y78350000D03*
X34500000Y78350000D03*
X35000000Y78350000D03*
X35500000Y78350000D03*
X36000000Y78350000D03*
X36500000Y78350000D03*
X37000000Y78350000D03*
%TD*%
D28*
%TO.C,USER_LED1*%
X36450000Y30433000D03*
X37974000Y30433000D03*
%TD*%
D19*
%TO.C,C28*%
X20067000Y48975000D03*
D18*
X20067000Y47959000D03*
%TD*%
D28*
%TO.C,LED_LINK1*%
X20194000Y87837000D03*
X21718000Y87837000D03*
%TD*%
D19*
%TO.C,C38*%
X37593000Y56214000D03*
D18*
X37593000Y55198000D03*
%TD*%
D22*
%TO.C,C114*%
X26036000Y59389000D03*
D23*
X27052000Y59389000D03*
%TD*%
D29*
%TO.C,BOOT1*%
X7925000Y42075000D03*
X12075000Y42075000D03*
X7925000Y39925000D03*
X12075000Y39925000D03*
%TD*%
D23*
%TO.C,R64*%
X47372000Y74883000D03*
D22*
X46356000Y74883000D03*
%TD*%
D19*
%TO.C,R21*%
X18035000Y65485000D03*
D18*
X18035000Y64469000D03*
%TD*%
D22*
%TO.C,R74*%
X36577000Y17860000D03*
D23*
X37593000Y17860000D03*
%TD*%
D22*
%TO.C,R94*%
X7113000Y30433000D03*
D23*
X8129000Y30433000D03*
%TD*%
D30*
%TO.C,LED_HOST3*%
X39625000Y8462000D03*
X39625000Y9986000D03*
%TD*%
D22*
%TO.C,R12*%
X21591000Y24718000D03*
D23*
X22607000Y24718000D03*
%TD*%
D19*
%TO.C,C107*%
X26036000Y62310000D03*
D18*
X26036000Y61294000D03*
%TD*%
D22*
%TO.C,R26*%
X20956000Y49864000D03*
D23*
X21972000Y49864000D03*
%TD*%
D31*
%TO.C,L4*%
X12255000Y35259000D03*
X13655000Y35259000D03*
%TD*%
D32*
%TO.C,C14*%
X17908000Y20400000D03*
X17908000Y22432000D03*
%TD*%
D33*
%TO.C,C35*%
X9399000Y33354000D03*
X9399000Y31576000D03*
%TD*%
D34*
%TO.C,Q6*%
X28406000Y57649000D03*
X26206000Y56049000D03*
X28406000Y56049000D03*
X26206000Y57649000D03*
%TD*%
D18*
%TO.C,R85*%
X31370000Y57484000D03*
D19*
X31370000Y58500000D03*
%TD*%
D34*
%TO.C,Q3*%
X33105000Y33265000D03*
X30905000Y31665000D03*
X33105000Y31665000D03*
X30905000Y33265000D03*
%TD*%
D19*
%TO.C,R69*%
X27306000Y19384000D03*
D18*
X27306000Y18368000D03*
%TD*%
D35*
%TO.C,FET8*%
X39691040Y68441560D03*
X41593500Y68441560D03*
X40638460Y70651360D03*
%TD*%
D23*
%TO.C,R87*%
X28957000Y59389000D03*
D22*
X27941000Y59389000D03*
%TD*%
D18*
%TO.C,C1*%
X36323000Y32846000D03*
D19*
X36323000Y33862000D03*
%TD*%
%TO.C,R84*%
X38228000Y72470000D03*
D18*
X38228000Y71454000D03*
%TD*%
D28*
%TO.C,LED_ACT1*%
X20194000Y82757000D03*
X21718000Y82757000D03*
%TD*%
D23*
%TO.C,R48*%
X41022000Y47832000D03*
D22*
X40006000Y47832000D03*
%TD*%
D19*
%TO.C,C72*%
X39625000Y24337000D03*
D18*
X39625000Y23321000D03*
%TD*%
D36*
%TO.C,UEXT1*%
X53500000Y67810000D03*
X53500000Y60190000D03*
D37*
X50375000Y69080000D03*
X56625000Y69080000D03*
X50375000Y66540000D03*
X56625000Y66540000D03*
X50375000Y64000000D03*
X56625000Y64000000D03*
X50375000Y61460000D03*
X56625000Y61460000D03*
X50375000Y58920000D03*
X56625000Y58920000D03*
%TD*%
D38*
%TO.C,Q1*%
X38101000Y33628000D03*
X38101000Y36128000D03*
%TD*%
D23*
%TO.C,C106*%
X32386000Y59770000D03*
D22*
X31370000Y59770000D03*
%TD*%
D39*
%TO.C,R15*%
X23982210Y50774790D03*
D40*
X23263790Y51493210D03*
%TD*%
D18*
%TO.C,C113*%
X29973000Y58373000D03*
D19*
X29973000Y59389000D03*
%TD*%
D30*
%TO.C,LED_HOST4*%
X41276000Y8462000D03*
X41276000Y9986000D03*
%TD*%
D41*
%TO.C,U1*%
X35556000Y38377000D03*
D42*
X35531000Y38727000D03*
X35531000Y39077000D03*
X35531000Y39427000D03*
X35531000Y39777000D03*
X35531000Y40127000D03*
X35531000Y40477000D03*
X35531000Y40827000D03*
X35531000Y41177000D03*
X35531000Y41527000D03*
X35531000Y41877000D03*
X35531000Y42227000D03*
X35531000Y42577000D03*
X35531000Y42927000D03*
X35531000Y43277000D03*
X35531000Y43627000D03*
X35531000Y43977000D03*
X35531000Y44327000D03*
X35531000Y44677000D03*
X35531000Y45027000D03*
X35531000Y45377000D03*
X35531000Y45727000D03*
X35531000Y46077000D03*
X35531000Y46427000D03*
X35531000Y46777000D03*
D41*
X35556000Y47127000D03*
D43*
X34856000Y47827000D03*
D44*
X34506000Y47802000D03*
X34156000Y47802000D03*
X33806000Y47802000D03*
X33456000Y47802000D03*
X33106000Y47802000D03*
X32756000Y47802000D03*
X32406000Y47802000D03*
X32056000Y47802000D03*
X31706000Y47802000D03*
X31356000Y47802000D03*
X31006000Y47802000D03*
X30656000Y47802000D03*
X30306000Y47802000D03*
X29956000Y47802000D03*
X29606000Y47802000D03*
X29256000Y47802000D03*
X28906000Y47802000D03*
X28556000Y47802000D03*
X28206000Y47802000D03*
X27856000Y47802000D03*
X27506000Y47802000D03*
X27156000Y47802000D03*
X26806000Y47802000D03*
X26456000Y47802000D03*
D43*
X26106000Y47827000D03*
D41*
X25406000Y47127000D03*
D42*
X25431000Y46777000D03*
X25431000Y46427000D03*
X25431000Y46077000D03*
X25431000Y45727000D03*
X25431000Y45377000D03*
X25431000Y45027000D03*
X25431000Y44677000D03*
X25431000Y44327000D03*
X25431000Y43977000D03*
X25431000Y43627000D03*
X25431000Y43277000D03*
X25431000Y42927000D03*
X25431000Y42577000D03*
X25431000Y42227000D03*
X25431000Y41877000D03*
X25431000Y41527000D03*
X25431000Y41177000D03*
X25431000Y40827000D03*
X25431000Y40477000D03*
X25431000Y40127000D03*
X25431000Y39777000D03*
X25431000Y39427000D03*
X25431000Y39077000D03*
X25431000Y38727000D03*
D41*
X25406000Y38377000D03*
D43*
X26106000Y37677000D03*
D44*
X26456000Y37702000D03*
X26806000Y37702000D03*
X27156000Y37702000D03*
X27506000Y37702000D03*
X27856000Y37702000D03*
X28206000Y37702000D03*
X28556000Y37702000D03*
X28906000Y37702000D03*
X29256000Y37702000D03*
X29606000Y37702000D03*
X29956000Y37702000D03*
X30306000Y37702000D03*
X30656000Y37702000D03*
X31006000Y37702000D03*
X31356000Y37702000D03*
X31706000Y37702000D03*
X32056000Y37702000D03*
X32406000Y37702000D03*
X32756000Y37702000D03*
X33106000Y37702000D03*
X33456000Y37702000D03*
X33806000Y37702000D03*
X34156000Y37702000D03*
X34506000Y37702000D03*
D43*
X34856000Y37677000D03*
D45*
X30481000Y39752000D03*
X27481000Y42752000D03*
D46*
X30481000Y42752000D03*
D47*
X30481000Y42752000D03*
D45*
X33481000Y42752000D03*
X30481000Y45752000D03*
%TD*%
D23*
%TO.C,R46*%
X19178000Y35386000D03*
D22*
X18162000Y35386000D03*
%TD*%
D30*
%TO.C,LED_HOST2*%
X37974000Y8462000D03*
X37974000Y9986000D03*
%TD*%
D21*
%TO.C,DC_VIN1*%
X42165000Y6176000D03*
%TD*%
D48*
%TO.C,U9*%
X28248000Y73810500D03*
X28748000Y73810500D03*
D49*
X29248000Y73860500D03*
D48*
X29748000Y73810500D03*
X30248000Y73810500D03*
X30248000Y74685500D03*
X29748000Y74685500D03*
D49*
X29248000Y74635500D03*
D48*
X28748000Y74685500D03*
X28248000Y74685500D03*
%TD*%
D19*
%TO.C,C29*%
X43562000Y33862000D03*
D18*
X43562000Y32846000D03*
%TD*%
D50*
%TO.C,C16*%
X9907000Y64850000D03*
X9907000Y66628000D03*
%TD*%
D24*
%TO.C,MIPI-DSI1*%
X53675000Y48000000D03*
X53675000Y47000000D03*
X53675000Y46000000D03*
X53675000Y45000000D03*
X53675000Y44000000D03*
X53675000Y43000000D03*
X53675000Y42000000D03*
X53675000Y41000000D03*
X53675000Y40000000D03*
X53675000Y39000000D03*
X53675000Y38000000D03*
X53675000Y37000000D03*
X53675000Y36000000D03*
X53675000Y35000000D03*
X53675000Y34000000D03*
X57325000Y34000000D03*
X57325000Y35000000D03*
X57325000Y36000000D03*
X57325000Y37000000D03*
X57325000Y38000000D03*
X57325000Y39000000D03*
X57325000Y40000000D03*
X57325000Y41000000D03*
X57325000Y42000000D03*
X57325000Y43000000D03*
X57325000Y44000000D03*
X57325000Y45000000D03*
X57325000Y46000000D03*
X57325000Y47000000D03*
X57325000Y48000000D03*
%TD*%
D51*
%TO.C,U7*%
X36927000Y26408000D03*
X36287000Y26408000D03*
X35647000Y26408000D03*
X35007000Y26408000D03*
X34367000Y26408000D03*
X33727000Y26408000D03*
X33087000Y26408000D03*
X32447000Y26408000D03*
X31807000Y26408000D03*
X31167000Y26408000D03*
X30527000Y26408000D03*
X29887000Y26408000D03*
X29247000Y26408000D03*
X28607000Y26408000D03*
X28607000Y20908000D03*
X29247000Y20908000D03*
X29887000Y20908000D03*
X30527000Y20908000D03*
X31167000Y20908000D03*
X31807000Y20908000D03*
X32447000Y20908000D03*
X33087000Y20908000D03*
X33727000Y20908000D03*
X34367000Y20908000D03*
X35007000Y20908000D03*
X35647000Y20908000D03*
X36287000Y20908000D03*
X36927000Y20908000D03*
%TD*%
D18*
%TO.C,R63*%
X46356000Y76153000D03*
D19*
X46356000Y77169000D03*
%TD*%
D22*
%TO.C,R73*%
X38736000Y19003000D03*
D23*
X39752000Y19003000D03*
%TD*%
D19*
%TO.C,R88*%
X37212000Y72470000D03*
D18*
X37212000Y71454000D03*
%TD*%
D19*
%TO.C,R8*%
X20321000Y67771000D03*
D18*
X20321000Y66755000D03*
%TD*%
%TO.C,R47*%
X14860000Y30814000D03*
D19*
X14860000Y31830000D03*
%TD*%
D52*
%TO.C,USB_HOST3-4*%
X43930000Y16000000D03*
X43930000Y10300000D03*
X57070000Y16000000D03*
X57070000Y10300000D03*
D53*
X47000000Y15620000D03*
X49500000Y15620000D03*
X51500000Y15620000D03*
X54000000Y15620000D03*
X47000000Y13000000D03*
X49500000Y13000000D03*
X51500000Y13000000D03*
X54000000Y13000000D03*
%TD*%
D54*
%TO.C,BAT1*%
X55509000Y20148000D03*
X55509000Y26748000D03*
D55*
X51884000Y24448000D03*
X51884000Y22448000D03*
%TD*%
D48*
%TO.C,U10*%
X31259000Y73810500D03*
X31759000Y73810500D03*
D49*
X32259000Y73860500D03*
D48*
X32759000Y73810500D03*
X33259000Y73810500D03*
X33259000Y74685500D03*
X32759000Y74685500D03*
D49*
X32259000Y74635500D03*
D48*
X31759000Y74685500D03*
X31259000Y74685500D03*
%TD*%
D23*
%TO.C,R76*%
X38228000Y67771000D03*
D22*
X37212000Y67771000D03*
%TD*%
D18*
%TO.C,C105*%
X32259000Y57484000D03*
D19*
X32259000Y58500000D03*
%TD*%
D22*
%TO.C,C95*%
X34164000Y72089000D03*
D23*
X35180000Y72089000D03*
%TD*%
D19*
%TO.C,C30*%
X42673000Y33862000D03*
D18*
X42673000Y32846000D03*
%TD*%
%TO.C,C21*%
X12320000Y59770000D03*
D19*
X12320000Y60786000D03*
%TD*%
D56*
%TO.C,FID2*%
X3176000Y88345000D03*
%TD*%
D57*
%TO.C,U3*%
X39371000Y50058000D03*
X40641000Y50058000D03*
X41911000Y50058000D03*
X43181000Y50058000D03*
X43181000Y56528000D03*
X41911000Y56528000D03*
X40641000Y56528000D03*
X39371000Y56528000D03*
%TD*%
D22*
%TO.C,R72*%
X38736000Y17860000D03*
D23*
X39752000Y17860000D03*
%TD*%
D18*
%TO.C,C27*%
X20067000Y49864000D03*
D19*
X20067000Y50880000D03*
%TD*%
D29*
%TO.C,RST1*%
X7925000Y47075000D03*
X12075000Y47075000D03*
X7925000Y44925000D03*
X12075000Y44925000D03*
%TD*%
D22*
%TO.C,C45*%
X31243000Y34878000D03*
D23*
X32259000Y34878000D03*
%TD*%
%TO.C,R83*%
X41149000Y76534000D03*
D22*
X40133000Y76534000D03*
%TD*%
D21*
%TO.C,GND1*%
X58675000Y3001000D03*
%TD*%
D19*
%TO.C,C19*%
X13082000Y66628000D03*
D18*
X13082000Y65612000D03*
%TD*%
D58*
%TO.C,PWR1*%
X12320000Y10748000D03*
X10796000Y10748000D03*
%TD*%
D52*
%TO.C,USB_HOST1-2*%
X20430000Y16000000D03*
X20430000Y10300000D03*
X33570000Y16000000D03*
X33570000Y10300000D03*
D53*
X23500000Y15620000D03*
X26000000Y15620000D03*
X28000000Y15620000D03*
X30500000Y15620000D03*
X23500000Y13000000D03*
X26000000Y13000000D03*
X28000000Y13000000D03*
X30500000Y13000000D03*
%TD*%
D23*
%TO.C,R16*%
X22607000Y23575000D03*
D22*
X21591000Y23575000D03*
%TD*%
D59*
%TO.C,U5*%
X12820000Y32961000D03*
X12320000Y32961000D03*
X11820000Y32961000D03*
X11820000Y31461000D03*
X12320000Y31461000D03*
X12820000Y31461000D03*
%TD*%
D60*
%TO.C,C65*%
X15495000Y35259000D03*
X15495000Y33227000D03*
%TD*%
D18*
%TO.C,C6*%
X38482000Y46816000D03*
D19*
X38482000Y47832000D03*
%TD*%
D61*
%TO.C,U12*%
X35120000Y63120000D03*
X35120000Y63520000D03*
X35120000Y63920000D03*
X35120000Y64320000D03*
X35120000Y64720000D03*
X35120000Y65120000D03*
X35120000Y65520000D03*
X35120000Y65920000D03*
X35120000Y66320000D03*
X35120000Y66720000D03*
X35120000Y67120000D03*
X35120000Y67520000D03*
X35120000Y67920000D03*
X35120000Y68320000D03*
D62*
X35120000Y68720000D03*
X35120000Y69120000D03*
D63*
X34370000Y69870000D03*
X33970000Y69870000D03*
X33570000Y69870000D03*
X33170000Y69870000D03*
X32770000Y69870000D03*
X32370000Y69870000D03*
X31970000Y69870000D03*
X31570000Y69870000D03*
X31170000Y69870000D03*
X30770000Y69870000D03*
X30370000Y69870000D03*
X29970000Y69870000D03*
D64*
X29570000Y69870000D03*
X29170000Y69870000D03*
X28770000Y69870000D03*
X28370000Y69870000D03*
D61*
X27620000Y69120000D03*
X27620000Y68720000D03*
X27620000Y68320000D03*
X27620000Y67920000D03*
X27620000Y67520000D03*
X27620000Y67120000D03*
X27620000Y66720000D03*
X27620000Y66320000D03*
X27620000Y65920000D03*
X27620000Y65520000D03*
D62*
X27620000Y65120000D03*
X27620000Y64720000D03*
X27620000Y64320000D03*
X27620000Y63920000D03*
X27620000Y63520000D03*
X27620000Y63120000D03*
D63*
X28370000Y62370000D03*
X28770000Y62370000D03*
X29170000Y62370000D03*
X29570000Y62370000D03*
X29970000Y62370000D03*
X30370000Y62370000D03*
X30770000Y62370000D03*
X31170000Y62370000D03*
X31570000Y62370000D03*
X31970000Y62370000D03*
X32370000Y62370000D03*
X32770000Y62370000D03*
X33170000Y62370000D03*
X33570000Y62370000D03*
X33970000Y62370000D03*
X34370000Y62370000D03*
D21*
X28870000Y63620000D03*
X33870000Y63620000D03*
D65*
X31370000Y66120000D03*
D66*
X31370000Y66120000D03*
D21*
X28870000Y68620000D03*
X33870000Y68620000D03*
%TD*%
D23*
%TO.C,R36*%
X8129000Y29417000D03*
D22*
X7113000Y29417000D03*
%TD*%
D21*
%TO.C,+5V_POE1*%
X9272000Y55325000D03*
%TD*%
D67*
%TO.C,LAN1*%
X15215000Y79150000D03*
X3785000Y79150000D03*
D68*
X17300000Y76100000D03*
X1700000Y76100000D03*
D69*
X15215000Y69960000D03*
X13945000Y72500000D03*
X12675000Y69960000D03*
X11405000Y72500000D03*
X10135000Y69960000D03*
X8865000Y72500000D03*
X7595000Y69960000D03*
X6325000Y72500000D03*
X5055000Y69960000D03*
X3785000Y72500000D03*
%TD*%
D22*
%TO.C,R65*%
X37212000Y68914000D03*
D23*
X38228000Y68914000D03*
%TD*%
D70*
%TO.C,FET4*%
X46447440Y63900040D03*
X46447440Y65802500D03*
X44237640Y64847460D03*
%TD*%
D23*
%TO.C,C2*%
X38482000Y37545000D03*
D22*
X37466000Y37545000D03*
%TD*%
%TO.C,R11*%
X21591000Y25988000D03*
D23*
X22607000Y25988000D03*
%TD*%
D21*
%TO.C,VBAT1*%
X17781000Y27131000D03*
%TD*%
D71*
%TO.C,Q4*%
X42838000Y23364000D03*
X41238000Y25564000D03*
X41238000Y23364000D03*
X42838000Y25564000D03*
%TD*%
D21*
%TO.C,MICRO_SD1*%
X3967800Y16452000D03*
X3967800Y24453000D03*
D72*
X14850000Y17250000D03*
X14850000Y18350000D03*
X14850000Y19450000D03*
X14850000Y20550000D03*
X14850000Y21650000D03*
X14850000Y22750000D03*
X14850000Y23850000D03*
X14850000Y24950000D03*
X14850000Y26050000D03*
D73*
X13970000Y27250000D03*
D74*
X13970000Y12650000D03*
D75*
X4370000Y27250000D03*
X4370000Y11750000D03*
%TD*%
D19*
%TO.C,R70*%
X26163000Y19384000D03*
D18*
X26163000Y18368000D03*
%TD*%
%TO.C,R75*%
X38228000Y73613000D03*
D19*
X38228000Y74629000D03*
%TD*%
D76*
%TO.C,L1*%
X21464000Y20146000D03*
X21464000Y22178000D03*
%TD*%
D21*
%TO.C,HEADSETS1*%
X53500000Y86250000D03*
X53500000Y79250000D03*
D77*
X50000000Y76350000D03*
X57000000Y84750000D03*
X57000000Y81750000D03*
X57000000Y77750000D03*
%TD*%
D69*
%TO.C,C117*%
X16130000Y7367200D03*
D78*
X16130000Y3867200D03*
%TD*%
D39*
%TO.C,R14*%
X24744210Y51536790D03*
D40*
X24025790Y52255210D03*
%TD*%
D79*
%TO.C,POE_PWR1*%
X6900000Y58000000D03*
X6900000Y60000000D03*
X6900000Y62000000D03*
X6900000Y64000000D03*
D80*
X3275000Y55700000D03*
X3275000Y66300000D03*
%TD*%
D21*
%TO.C,+5V_EXT1*%
X13463000Y1350000D03*
%TD*%
D58*
%TO.C,CHARGE1*%
X48896000Y28401000D03*
X47372000Y28401000D03*
%TD*%
D23*
%TO.C,C62*%
X19178000Y36656000D03*
D22*
X18162000Y36656000D03*
%TD*%
D81*
%TO.C,C102*%
X47372000Y81106000D03*
X45594000Y81106000D03*
%TD*%
D19*
%TO.C,R7*%
X19178000Y67771000D03*
D18*
X19178000Y66755000D03*
%TD*%
D82*
%TO.C,EXT1*%
X1730000Y52730000D03*
D83*
X4270000Y52730000D03*
X1730000Y50190000D03*
X4270000Y50190000D03*
X1730000Y47650000D03*
X4270000Y47650000D03*
X1730000Y45110000D03*
X4270000Y45110000D03*
X1730000Y42570000D03*
X4270000Y42570000D03*
X1730000Y40030000D03*
X4270000Y40030000D03*
X1730000Y37490000D03*
X4270000Y37490000D03*
X1730000Y34950000D03*
X4270000Y34950000D03*
X1730000Y32410000D03*
X4270000Y32410000D03*
X1730000Y29870000D03*
X4270000Y29870000D03*
%TD*%
D19*
%TO.C,C60*%
X13717000Y41863000D03*
D18*
X13717000Y40847000D03*
%TD*%
D19*
%TO.C,C18*%
X14098000Y66628000D03*
D18*
X14098000Y65612000D03*
%TD*%
D23*
%TO.C,R32*%
X34164000Y34878000D03*
D22*
X33148000Y34878000D03*
%TD*%
D84*
%TO.C,ACT/SUS1*%
X16003000Y14304000D03*
X16003000Y12780000D03*
%TD*%
D48*
%TO.C,U11*%
X34307000Y73810500D03*
X34807000Y73810500D03*
D49*
X35307000Y73860500D03*
D48*
X35807000Y73810500D03*
X36307000Y73810500D03*
X36307000Y74685500D03*
X35807000Y74685500D03*
D49*
X35307000Y74635500D03*
D48*
X34807000Y74685500D03*
X34307000Y74685500D03*
%TD*%
D85*
%TO.C,MH1*%
X45500000Y86000000D03*
%TD*%
D56*
%TO.C,FID3*%
X58421000Y88345000D03*
%TD*%
D18*
%TO.C,C7*%
X37593000Y46816000D03*
D19*
X37593000Y47832000D03*
%TD*%
D22*
%TO.C,R42*%
X14225000Y37545000D03*
D23*
X15241000Y37545000D03*
%TD*%
D85*
%TO.C,MH2*%
X38500000Y4000000D03*
%TD*%
D19*
%TO.C,R9*%
X17146000Y61421000D03*
D18*
X17146000Y60405000D03*
%TD*%
D19*
%TO.C,R10*%
X18289000Y61421000D03*
D18*
X18289000Y60405000D03*
%TD*%
%TO.C,R43*%
X14860000Y40847000D03*
D19*
X14860000Y41863000D03*
%TD*%
D22*
%TO.C,R91*%
X50547000Y29036000D03*
D23*
X51563000Y29036000D03*
%TD*%
D18*
%TO.C,C52*%
X23115000Y37164000D03*
D19*
X23115000Y38180000D03*
%TD*%
D50*
%TO.C,C15*%
X11558000Y64850000D03*
X11558000Y66628000D03*
%TD*%
D18*
%TO.C,R13*%
X36323000Y35259000D03*
D19*
X36323000Y36275000D03*
%TD*%
D56*
%TO.C,FID1*%
X23623000Y1731000D03*
%TD*%
D86*
%TO.C,DCDC_Vin1*%
X8256000Y35640000D03*
D87*
X8637000Y35640000D03*
X9018000Y35640000D03*
D86*
X9399000Y35640000D03*
X10542000Y35640000D03*
%TD*%
D23*
%TO.C,R4*%
X40895000Y30052000D03*
D22*
X39879000Y30052000D03*
%TD*%
D30*
%TO.C,LED_HOST1*%
X36323000Y8462000D03*
X36323000Y9986000D03*
%TD*%
D18*
%TO.C,C44*%
X34672000Y32846000D03*
D19*
X34672000Y33862000D03*
%TD*%
D22*
%TO.C,C91*%
X28703000Y18495000D03*
D23*
X29719000Y18495000D03*
%TD*%
D18*
%TO.C,C109*%
X25401000Y64977000D03*
D19*
X25401000Y65993000D03*
%TD*%
D22*
%TO.C,R25*%
X20956000Y48975000D03*
D23*
X21972000Y48975000D03*
%TD*%
D22*
%TO.C,C67*%
X30989000Y18495000D03*
D23*
X32005000Y18495000D03*
%TD*%
D21*
%TO.C,+5V_USB1*%
X1398000Y11129000D03*
%TD*%
D22*
%TO.C,C112*%
X24385000Y70057000D03*
D23*
X25401000Y70057000D03*
%TD*%
D19*
%TO.C,C108*%
X25020000Y62310000D03*
D18*
X25020000Y61294000D03*
%TD*%
D81*
%TO.C,C103*%
X47372000Y79328000D03*
X45594000Y79328000D03*
%TD*%
D19*
%TO.C,C110*%
X25401000Y67898000D03*
D18*
X25401000Y66882000D03*
%TD*%
D22*
%TO.C,C111*%
X24385000Y68914000D03*
D23*
X25401000Y68914000D03*
%TD*%
D88*
%TO.C,PWR_SENS_E1*%
X7113000Y31830000D03*
X7113000Y32592000D03*
%TD*%
D56*
%TO.C,FID4*%
X54103000Y1731000D03*
%TD*%
D85*
%TO.C,MH3*%
X13500000Y53500000D03*
%TD*%
D21*
%TO.C,3.3V1*%
X42419000Y30052000D03*
%TD*%
D20*
%TO.C,FET3*%
X46289960Y70148440D03*
X44387500Y70148440D03*
X45342540Y67938640D03*
%TD*%
D23*
%TO.C,R39*%
X9653000Y10748000D03*
D22*
X8637000Y10748000D03*
%TD*%
D45*
%TO.C,U2*%
X13082000Y63199000D03*
%TD*%
D89*
%TO.C,U8*%
X47118000Y73359000D03*
%TD*%
M02*
