M48
; DRILL file {KiCad 7.0.9-7.0.9~ubuntu22.04.1} date 29.01.2026 (чт) 14:24:07
; FORMAT={-:-/ absolute / metric / decimal}
; #@! TF.CreationDate,2026-01-29T14:24:07+02:00
; #@! TF.GenerationSoftware,Kicad,Pcbnew,7.0.9-7.0.9~ubuntu22.04.1
; #@! TF.FileFunction,Plated,1,4,PTH
FMAT,2
METRIC
; #@! TA.AperFunction,Plated,PTH,ViaDrill
T1C0.300
; #@! TA.AperFunction,Plated,PTH,ComponentDrill
T2C0.300
; #@! TA.AperFunction,Plated,PTH,ViaDrill
T3C0.400
; #@! TA.AperFunction,Plated,PTH,ViaDrill
T4C0.500
; #@! TA.AperFunction,Plated,PTH,ViaDrill
T5C0.600
; #@! TA.AperFunction,Plated,PTH,ComponentDrill
T6C0.600
; #@! TA.AperFunction,Plated,PTH,ComponentDrill
T7C0.800
; #@! TA.AperFunction,Plated,PTH,ComponentDrill
T8C0.900
; #@! TA.AperFunction,Plated,PTH,ComponentDrill
T9C1.000
; #@! TA.AperFunction,Plated,PTH,ComponentDrill
T10C1.200
; #@! TA.AperFunction,Plated,PTH,ComponentDrill
T11C1.600
; #@! TA.AperFunction,Plated,PTH,ComponentDrill
T12C2.400
%
G90
G05
T1
X4.319Y10.621
X5.208Y10.621
X5.589Y9.732
X6.148Y10.487
X6.605Y26.75
X6.9Y10.487
X7.875Y8.589
X8.002Y9.732
X9.526Y60.278
X10.288Y42.371
X10.415Y50.118
X11.05Y42.117
X11.05Y34.497
X11.685Y41.101
X12.447Y2.874
X12.574Y40.974
X12.828Y43.387
X12.882Y59.97
X13.209Y2.874
X13.59Y49.61
X13.59Y42.752
X13.907Y43.578
X14.098Y39.704
X14.467Y49.217
X14.479Y38.307
X14.606Y44.53
X14.733Y59.135
X14.999Y49.749
X15.114Y60.659
X15.114Y42.879
X15.368Y43.768
X15.749Y45.419
X15.749Y44.53
X15.876Y41.355
X16.13Y59.516
X16.384Y62.513
X16.511Y40.72
X16.638Y51.032
X16.765Y59.008
X17.019Y55.198
X17.019Y28.401
X17.146Y43.895
X17.171Y50.524
X17.527Y62.437
X17.527Y53.293
X17.527Y47.705
X17.654Y54.309
X17.654Y44.657
X17.654Y17.606
X17.781Y42.371
X17.781Y28.147
X17.908Y31.068
X18.162Y50.499
X18.289Y18.241
X18.416Y39.45
X18.416Y23.575
X18.543Y44.657
X18.543Y25.734
X18.67Y30.941
X18.67Y24.464
X18.797Y26.872
X19.051Y68.66
X19.051Y42.244
X19.178Y87.837
X19.178Y18.876
X19.305Y21.67
X19.432Y44.657
X19.432Y25.607
X19.559Y65.485
X19.813Y41.736
X19.94Y60.786
X19.94Y24.083
X20.194Y19.511
X20.321Y25.607
X21.591Y25.353
X21.972Y65.612
X21.972Y35.513
X22.226Y26.623
X22.663Y22.051
X22.861Y61.802
X23.115Y28.401
X23.115Y27.512
X23.115Y26.623
X23.242Y43.438
X23.369Y47.578
X23.623Y70.057
X23.623Y68.914
X23.623Y56.214
X23.623Y48.34
X24.512Y41.482
X24.627Y24.452
X24.639Y63.326
X24.639Y49.737
X24.639Y23.194
X24.766Y64.977
X24.893Y57.484
X25.147Y54.817
X25.147Y21.924
X25.147Y16.971
X25.159Y24.984
X25.274Y59.008
X25.401Y52.658
X25.528Y25.861
X25.655Y51.261
X25.655Y28.274
X26.053Y53.674
X26.163Y9.859
X26.239Y45.038
X26.239Y43.971
X26.239Y42.219
X26.239Y41.177
X26.239Y40.14
X26.239Y39.41
X26.24Y38.73
X26.366Y46.943
X26.544Y73.486
X26.544Y66.755
X26.659Y27.905
X26.671Y32.211
X26.78Y53.674
X27.191Y27.373
X27.306Y54.817
X27.306Y30.941
X27.433Y74.375
X27.509Y46.994
X27.56Y60.278
X27.577Y51.388
X27.814Y20.781
X27.941Y52.15
X27.941Y25.861
X27.941Y24.972
X28.068Y35.386
X28.16Y33.897
X28.195Y38.51
X28.304Y51.388
X28.322Y53.674
X28.576Y33.1
X28.703Y31.703
X29.084Y54.817
X29.211Y72.851
X29.211Y71.835
X29.211Y32.465
X29.248Y75.86
X29.338Y33.735
X29.592Y31.703
X29.781Y53.762
X29.948Y46.994
X30.1Y23.956
X30.227Y55.706
X30.227Y36.656
X30.354Y22.305
X30.481Y57.738
X30.508Y53.762
X30.735Y72.851
X30.735Y34.37
X30.77Y71.962
X30.989Y60.913
X31.243Y22.178
X31.37Y59.135
X31.497Y54.182
X32.005Y8.462
X32.056Y38.51
X32.259Y75.518
X32.259Y72.851
X32.259Y71.835
X32.259Y36.783
X32.259Y36.021
X32.406Y46.999
X32.767Y61.294
X33.009Y23.436
X33.021Y60.405
X33.427Y70.819
X33.529Y25.099
X33.541Y23.968
X33.656Y61.294
X33.808Y46.994
X33.808Y38.51
X33.91Y5.16
X34.037Y76.407
X34.621Y38.612
X34.672Y31.322
X34.723Y45.368
X34.723Y41.177
X34.723Y40.136
X34.73Y42.93
X34.799Y36.656
X34.926Y34.649
X35.295Y23.309
X35.307Y75.518
X35.561Y62.437
X35.561Y51.515
X35.688Y24.845
X35.827Y23.841
X36.145Y64.875
X36.196Y68.533
X36.45Y63.418
X36.45Y62.691
X36.577Y67.136
X36.78Y38.053
X36.958Y41.736
X36.958Y40.72
X36.958Y39.704
X36.987Y42.77
X37.085Y32.338
X37.212Y74.629
X37.212Y73.613
X37.339Y34.624
X37.593Y64.832
X37.593Y64.105
X37.593Y54.436
X37.72Y41.101
X37.72Y40.085
X37.847Y42.879
X37.847Y41.99
X37.847Y21.67
X38.101Y62.945
X38.126Y16.234
X38.126Y15.371
X38.228Y62.038
X38.228Y61.311
X38.228Y14.304
X38.355Y56.214
X38.482Y67.136
X38.482Y65.231
X38.482Y63.707
X38.482Y38.18
X38.482Y34.624
X38.482Y31.449
X38.736Y70.057
X38.863Y23.194
X38.863Y14.939
X38.932Y11.637
X38.99Y10.621
X39.015Y20.273
X39.117Y72.089
X39.244Y30.941
X39.371Y21.924
X39.389Y63.326
X39.498Y14.304
X40.006Y67.263
X40.006Y11.256
X40.115Y63.326
X40.133Y30.934
X40.133Y26.75
X40.26Y23.321
X40.514Y21.797
X40.641Y54.817
X41.022Y30.941
X41.149Y75.899
X41.276Y45.927
X41.4Y45.041
X41.53Y41.609
X41.911Y53.801
X41.911Y30.941
X41.914Y44.527
X42.038Y52.912
X42.038Y39.831
X42.299Y64.85
X42.299Y64.088
X42.419Y72.597
X42.419Y62.945
X42.546Y65.866
X42.673Y39.323
X42.8Y30.941
X43.435Y36.529
X43.689Y30.941
X43.816Y39.704
X43.943Y26.242
X44.07Y42.117
X44.197Y45.038
X44.197Y43.877
X44.197Y43.151
X44.207Y46.828
X44.207Y46.101
X44.324Y47.832
X44.324Y36.529
X44.451Y73.359
X44.451Y72.47
X44.578Y30.941
X44.705Y58.5
X45.213Y48.721
X45.467Y30.941
X45.657Y28.464
X45.848Y71.859
X46.229Y56.468
X47.499Y45.673
X47.499Y44.149
X47.499Y42.498
X48.388Y74.883
X48.642Y54.309
X48.896Y79.201
X48.896Y67.898
X49.277Y74.883
X49.404Y71.835
X49.912Y52.404
X49.912Y49.737
X50.42Y79.201
X50.925Y41.606
X50.928Y67.898
X50.928Y65.231
X50.928Y38.307
X50.928Y37.418
X51.179Y43.892
X51.182Y79.709
X51.309Y29.671
X51.439Y42.12
X51.693Y44.406
X52.071Y57.611
X52.198Y46.863
X52.198Y46.136
X52.198Y38.942
X52.325Y52.404
X52.452Y45.038
X52.452Y41.99
X52.579Y80.09
X52.706Y76.788
X52.833Y56.849
X52.833Y54.309
X52.96Y63.072
X53.214Y65.485
X53.468Y53.547
X53.595Y58.627
X53.722Y76.788
X53.849Y63.072
X53.849Y62.056
X54.357Y53.928
X54.484Y78.185
X54.611Y51.515
X54.738Y55.706
X55.119Y54.817
X55.373Y50.753
X55.627Y53.928
X55.627Y51.896
X55.754Y52.785
X56.135Y65.231
X56.135Y60.151
X56.262Y62.691
X57.024Y65.485
X57.024Y60.405
X57.151Y67.771
X58.421Y79.963
X58.421Y76.153
T2
X11.982Y63.699
X11.982Y62.699
X12.582Y64.299
X12.582Y62.099
X13.582Y64.299
X13.582Y62.099
X14.182Y63.699
X14.182Y62.699
T3
X12.701Y67.39
X18.67Y27.766
X22.861Y35.64
X24.258Y67.898
X24.639Y66.12
X29.084Y24.972
X30.1Y24.972
X34.291Y72.851
X36.958Y47.959
X42.165Y80.598
X43.562Y77.804
X44.324Y32.338
X45.34Y32.338
T4
X21.21Y59.643
X22.48Y57.992
X27.687Y62.31
X42.8Y79.582
X43.435Y72.597
T5
X1.271Y27.893
X1.525Y57.738
X1.525Y13.796
X2.16Y84.535
X2.287Y64.088
X2.287Y62.945
X2.414Y58.627
X2.668Y27.258
X2.732Y12.97
X2.795Y61.167
X3.303Y59.516
X3.43Y64.088
X3.43Y19.384
X3.684Y62.056
X4.446Y57.611
X4.573Y82.249
X4.573Y60.024
X4.573Y19.384
X4.7Y5.414
X4.7Y4.271
X4.827Y62.056
X5.081Y23.194
X5.335Y16.463
X5.335Y15.32
X5.462Y88.853
X5.843Y5.16
X6.224Y56.341
X6.478Y84.535
X6.478Y16.463
X6.478Y15.32
X6.859Y55.325
X6.859Y3.128
X7.113Y1.604
X7.24Y79.328
X7.494Y56.341
X8.002Y17.606
X8.002Y16.463
X8.002Y12.399
X8.129Y67.263
X8.129Y55.325
X8.129Y1.604
X8.51Y86.694
X9.145Y56.595
X9.145Y17.606
X9.145Y16.463
X9.272Y1.604
X9.399Y81.995
X9.399Y12.399
X9.653Y38.18
X9.653Y37.037
X9.653Y29.163
X10.034Y59.262
X10.288Y26.623
X10.288Y25.48
X10.288Y24.337
X10.542Y17.86
X10.542Y16.717
X10.923Y31.576
X11.558Y88.726
X11.558Y84.408
X11.939Y15.574
X12.32Y78.566
X12.955Y24.718
X12.955Y23.702
X13.082Y39.958
X13.209Y44.911
X13.209Y38.18
X13.209Y37.037
X13.844Y32.592
X13.844Y31.449
X13.971Y86.821
X14.225Y81.995
X15.368Y67.263
X15.749Y27.893
X15.876Y88.853
X15.876Y84.154
X16.13Y64.977
X16.638Y32.338
X16.765Y27.258
X17.146Y36.529
X17.146Y35.386
X17.781Y11.256
X17.781Y4.906
X17.781Y3.763
X18.162Y66.501
X18.543Y12.145
X18.797Y70.438
X18.924Y4.906
X19.178Y22.686
X19.432Y12.907
X19.94Y70.438
X20.829Y78.058
X22.099Y38.053
X22.353Y39.577
X22.48Y40.847
X22.531Y19.155
X23.623Y39.971
X23.877Y17.86
X24.004Y88.853
X24.004Y76.661
X24.004Y37.164
X25.147Y60.532
X26.29Y1.731
X26.417Y8.589
X26.671Y71.962
X27.433Y4.779
X27.433Y2.874
X27.433Y1.731
X27.56Y70.565
X27.814Y8.589
X28.703Y4.779
X29.973Y4.779
X30.608Y3.636
X30.989Y17.606
X32.132Y28.147
X32.259Y79.963
X33.021Y18.495
X35.18Y71.073
X35.561Y79.963
X37.085Y80.725
X37.847Y26.623
X39.244Y46.943
X41.022Y77.677
X41.149Y83.138
X41.784Y88.472
X41.784Y7.319
X42.292Y83.138
X42.673Y76.153
X42.927Y34.878
X42.927Y7.319
X43.689Y68.533
X44.197Y50.499
X44.197Y23.575
X46.102Y1.223
X46.737Y62.183
X46.737Y60.024
X47.372Y35.132
X47.753Y76.534
X48.261Y26.623
X48.388Y21.924
X48.896Y30.814
X49.277Y88.853
X49.277Y6.049
X49.531Y82.376
X49.531Y24.591
X49.531Y23.448
X49.531Y21.924
X49.531Y20.781
X49.658Y27.004
X49.658Y25.861
X50.674Y20.781
X50.928Y33.989
X51.055Y82.757
X51.055Y1.223
X51.182Y86.44
X52.071Y48.086
X52.198Y33.989
X52.198Y21.035
X52.198Y19.892
X52.833Y73.994
X52.96Y71.073
X52.96Y28.147
X52.96Y27.004
X52.96Y25.861
X53.087Y18.114
X53.722Y88.853
X53.976Y73.994
X54.23Y83.138
X54.23Y24.972
X54.357Y4.652
X54.738Y70.819
X54.865Y18.114
X55.373Y31.703
X55.373Y24.972
X55.5Y80.09
X55.754Y86.567
X55.754Y30.179
X55.754Y29.036
X55.881Y75.01
X55.881Y73.867
X55.881Y70.819
X56.643Y31.703
X56.897Y30.179
X56.897Y29.036
X57.913Y86.059
X57.913Y83.392
X58.421Y71.581
X58.421Y70.438
X58.675Y1.604
T6
X28.87Y68.62
X28.87Y63.62
X33.87Y68.62
X33.87Y63.62
T8
X16.13Y7.367
X16.13Y3.867
X47.118Y73.359
T9
X1.73Y52.73
X1.73Y50.19
X1.73Y47.65
X1.73Y45.11
X1.73Y42.57
X1.73Y40.03
X1.73Y37.49
X1.73Y34.95
X1.73Y32.41
X1.73Y29.87
X3.785Y72.5
X4.27Y52.73
X4.27Y50.19
X4.27Y47.65
X4.27Y45.11
X4.27Y42.57
X4.27Y40.03
X4.27Y37.49
X4.27Y34.95
X4.27Y32.41
X4.27Y29.87
X5.055Y69.96
X6.325Y72.5
X7.595Y69.96
X8.865Y72.5
X10.135Y69.96
X11.405Y72.5
X12.675Y69.96
X13.945Y72.5
X15.215Y69.96
X23.5Y15.62
X23.5Y13.0
X26.0Y15.62
X26.0Y13.0
X27.481Y42.752
X28.0Y15.62
X28.0Y13.0
X30.481Y45.752
X30.481Y39.752
X30.5Y15.62
X30.5Y13.0
X33.481Y42.752
X47.0Y15.62
X47.0Y13.0
X49.5Y15.62
X49.5Y13.0
X51.5Y15.62
X51.5Y13.0
X54.0Y15.62
X54.0Y13.0
T10
X13.082Y63.199
X31.37Y66.12
T11
X30.481Y42.752
T12
X20.43Y16.0
X20.43Y10.3
X33.57Y16.0
X33.57Y10.3
X43.93Y16.0
X43.93Y10.3
X57.07Y16.0
X57.07Y10.3
T6
G00X1.7Y75.4
M15
G01X1.7Y76.8
M16
G05
G00X17.3Y75.4
M15
G01X17.3Y76.8
M16
G05
T7
G00X2.18Y6.98
M15
G01X2.18Y6.08
M16
G05
G00X2.18Y2.65
M15
G01X2.18Y2.05
M16
G05
G00X10.82Y6.98
M15
G01X10.82Y6.08
M16
G05
G00X10.82Y2.65
M15
G01X10.82Y2.05
M16
G05
G00X25.2Y85.85
M15
G01X25.2Y84.85
M16
G05
G00X25.2Y80.0
M15
G01X25.2Y78.6
M16
G05
G00X39.8Y85.85
M15
G01X39.8Y84.85
M16
G05
G00X39.8Y80.0
M15
G01X39.8Y78.6
M16
G05
T0
M30
